<mxfile host="app.diagrams.net" modified="2023-01-17T14:58:18.208Z" agent="5.0 (Windows NT 10.0; Win64; x64) AppleWebKit/537.36 (KHTML, like Gecko) Chrome/109.0.0.0 Safari/537.36" etag="ZWS_zn22s_YC9x1eZciP" version="20.8.5" type="github">
  <diagram name="Page-1" id="edf60f1a-56cd-e834-aa8a-f176f3a09ee4">
    <mxGraphModel dx="1247" dy="1514" grid="1" gridSize="10" guides="1" tooltips="1" connect="1" arrows="1" fold="1" page="1" pageScale="1" pageWidth="1100" pageHeight="850" background="none" math="0" shadow="0">
      <root>
        <mxCell id="0" />
        <mxCell id="1" parent="0" />
        <mxCell id="lqjXlcWbuFl65co5ee---90" value="" style="rounded=0;whiteSpace=wrap;html=1;fontSize=11;fillColor=#FF2121;opacity=10;shadow=0;glass=1;strokeWidth=4;" parent="1" vertex="1">
          <mxGeometry x="280" y="1230" width="1740" height="1005" as="geometry" />
        </mxCell>
        <mxCell id="60e70716793133e9-31" style="edgeStyle=orthogonalEdgeStyle;rounded=0;html=1;labelBackgroundColor=none;startSize=5;endArrow=classicThin;endFill=1;endSize=5;jettySize=auto;orthogonalLoop=1;strokeWidth=1;fontFamily=Verdana;fontSize=8;" parent="1" source="60e70716793133e9-2" target="60e70716793133e9-5" edge="1">
          <mxGeometry relative="1" as="geometry" />
        </mxCell>
        <mxCell id="60e70716793133e9-2" value="&lt;font style=&quot;font-size: 21px;&quot;&gt;START&lt;/font&gt;" style="shape=trapezoid;whiteSpace=wrap;html=1;rounded=0;shadow=1;labelBackgroundColor=none;strokeWidth=1;fontFamily=Verdana;fontSize=8;align=center;flipV=1;fillColor=#6a00ff;fontColor=#ffffff;strokeColor=#3700CC;" parent="1" vertex="1">
          <mxGeometry x="680" y="150" width="120" height="60" as="geometry" />
        </mxCell>
        <mxCell id="60e70716793133e9-33" value="yes" style="edgeStyle=orthogonalEdgeStyle;rounded=0;html=1;labelBackgroundColor=none;startSize=5;endArrow=classicThin;endFill=1;endSize=5;jettySize=auto;orthogonalLoop=1;strokeWidth=1;fontFamily=Verdana;fontSize=8;fillColor=#008a00;strokeColor=#005700;" parent="1" source="60e70716793133e9-5" target="60e70716793133e9-7" edge="1">
          <mxGeometry x="-0.7778" y="10" relative="1" as="geometry">
            <mxPoint as="offset" />
          </mxGeometry>
        </mxCell>
        <mxCell id="60e70716793133e9-37" value="No" style="edgeStyle=orthogonalEdgeStyle;rounded=0;html=1;labelBackgroundColor=none;startSize=5;endArrow=classicThin;endFill=1;endSize=5;jettySize=auto;orthogonalLoop=1;strokeWidth=1;fontFamily=Verdana;fontSize=8;fillColor=#f8cecc;strokeColor=#b85450;" parent="1" source="60e70716793133e9-5" target="60e70716793133e9-9" edge="1">
          <mxGeometry x="-0.5" y="10" relative="1" as="geometry">
            <mxPoint as="offset" />
          </mxGeometry>
        </mxCell>
        <mxCell id="60e70716793133e9-5" value="&amp;gt;50 samples" style="rhombus;whiteSpace=wrap;html=1;rounded=0;shadow=1;labelBackgroundColor=none;strokeWidth=1;fontFamily=Verdana;fontSize=8;align=center;fillColor=#dae8fc;strokeColor=#6c8ebf;" parent="1" vertex="1">
          <mxGeometry x="690" y="240" width="100" height="60" as="geometry" />
        </mxCell>
        <mxCell id="60e70716793133e9-34" value="Yes" style="edgeStyle=orthogonalEdgeStyle;rounded=0;html=1;labelBackgroundColor=none;startSize=5;endArrow=classicThin;endFill=1;endSize=5;jettySize=auto;orthogonalLoop=1;strokeWidth=1;fontFamily=Verdana;fontSize=8;entryX=0;entryY=0.5;entryDx=0;entryDy=0;fillColor=#008a00;strokeColor=#005700;" parent="1" source="60e70716793133e9-7" target="lqjXlcWbuFl65co5ee---3" edge="1">
          <mxGeometry y="10" relative="1" as="geometry">
            <mxPoint as="offset" />
            <mxPoint x="1040" y="270" as="targetPoint" />
          </mxGeometry>
        </mxCell>
        <mxCell id="lqjXlcWbuFl65co5ee---54" value="no" style="edgeStyle=orthogonalEdgeStyle;rounded=0;orthogonalLoop=1;jettySize=auto;html=1;fillColor=#f8cecc;strokeColor=#b85450;" parent="1" source="60e70716793133e9-7" target="lqjXlcWbuFl65co5ee---53" edge="1">
          <mxGeometry relative="1" as="geometry" />
        </mxCell>
        <mxCell id="60e70716793133e9-7" value="predicting a catergory" style="rhombus;whiteSpace=wrap;html=1;rounded=0;shadow=1;labelBackgroundColor=none;strokeWidth=1;fontFamily=Verdana;fontSize=8;align=center;fillColor=#dae8fc;strokeColor=#6c8ebf;" parent="1" vertex="1">
          <mxGeometry x="860" y="240" width="100" height="60" as="geometry" />
        </mxCell>
        <mxCell id="60e70716793133e9-9" value="get more data" style="whiteSpace=wrap;html=1;rounded=0;shadow=1;labelBackgroundColor=none;strokeWidth=1;fontFamily=Verdana;fontSize=8;align=center;strokeColor=#82b366;fillColor=#d5e8d4;fontStyle=1;" parent="1" vertex="1">
          <mxGeometry x="580" y="260" width="70" height="20" as="geometry" />
        </mxCell>
        <mxCell id="lqjXlcWbuFl65co5ee---7" value="yes" style="edgeStyle=orthogonalEdgeStyle;rounded=0;orthogonalLoop=1;jettySize=auto;html=1;fillColor=#008a00;strokeColor=#005700;" parent="1" source="lqjXlcWbuFl65co5ee---3" target="lqjXlcWbuFl65co5ee---6" edge="1">
          <mxGeometry relative="1" as="geometry" />
        </mxCell>
        <mxCell id="lqjXlcWbuFl65co5ee---16" value="no" style="edgeStyle=orthogonalEdgeStyle;rounded=0;orthogonalLoop=1;jettySize=auto;html=1;fillColor=#e51400;strokeColor=#B20000;" parent="1" source="lqjXlcWbuFl65co5ee---3" target="lqjXlcWbuFl65co5ee---15" edge="1">
          <mxGeometry relative="1" as="geometry" />
        </mxCell>
        <mxCell id="lqjXlcWbuFl65co5ee---3" value="labeled data" style="rhombus;whiteSpace=wrap;html=1;rounded=0;shadow=1;labelBackgroundColor=none;strokeWidth=1;fontFamily=Verdana;fontSize=8;align=center;fillColor=#dae8fc;strokeColor=#6c8ebf;" parent="1" vertex="1">
          <mxGeometry x="1200" y="240" width="100" height="60" as="geometry" />
        </mxCell>
        <mxCell id="lqjXlcWbuFl65co5ee---11" value="no" style="edgeStyle=orthogonalEdgeStyle;rounded=0;orthogonalLoop=1;jettySize=auto;html=1;fillColor=#e51400;strokeColor=#B20000;" parent="1" source="lqjXlcWbuFl65co5ee---6" target="lqjXlcWbuFl65co5ee---10" edge="1">
          <mxGeometry relative="1" as="geometry" />
        </mxCell>
        <mxCell id="lqjXlcWbuFl65co5ee---13" value="yes" style="edgeStyle=orthogonalEdgeStyle;rounded=0;orthogonalLoop=1;jettySize=auto;html=1;fillColor=#008a00;strokeColor=#005700;" parent="1" source="lqjXlcWbuFl65co5ee---6" target="lqjXlcWbuFl65co5ee---12" edge="1">
          <mxGeometry relative="1" as="geometry" />
        </mxCell>
        <mxCell id="lqjXlcWbuFl65co5ee---6" value="&amp;lt;100k samples" style="rhombus;whiteSpace=wrap;html=1;fontSize=8;fontFamily=Verdana;rounded=0;shadow=1;labelBackgroundColor=none;strokeWidth=1;fillColor=#dae8fc;strokeColor=#6c8ebf;" parent="1" vertex="1">
          <mxGeometry x="1210" y="118" width="80" height="80" as="geometry" />
        </mxCell>
        <mxCell id="lqjXlcWbuFl65co5ee---38" value="not working?" style="edgeStyle=orthogonalEdgeStyle;rounded=0;orthogonalLoop=1;jettySize=auto;html=1;fillColor=#fff2cc;strokeColor=#d6b656;gradientColor=#ffd966;entryX=-0.001;entryY=0.951;entryDx=0;entryDy=0;entryPerimeter=0;" parent="1" source="lqjXlcWbuFl65co5ee---10" target="6wzLDkwV_o_ur1CjuWVl-21" edge="1">
          <mxGeometry relative="1" as="geometry">
            <mxPoint x="1570" y="158" as="targetPoint" />
          </mxGeometry>
        </mxCell>
        <mxCell id="lqjXlcWbuFl65co5ee---10" value="Stochastic Gradient Descent Classifier&lt;br&gt;(&lt;i&gt;linear_model.SGDClassifier&lt;/i&gt;)" style="whiteSpace=wrap;html=1;fontSize=8;fontFamily=Verdana;rounded=1;shadow=0;labelBackgroundColor=none;strokeWidth=1;fillColor=#FF6666;strokeColor=#b85450;fontStyle=1;swimlaneLine=0;" parent="1" vertex="1">
          <mxGeometry x="1340" y="128" width="140" height="60" as="geometry" />
        </mxCell>
        <mxCell id="lqjXlcWbuFl65co5ee---43" value="" style="edgeStyle=orthogonalEdgeStyle;rounded=0;orthogonalLoop=1;jettySize=auto;html=1;fillColor=#fff2cc;strokeColor=#d6b656;gradientColor=#ffd966;" parent="1" source="lqjXlcWbuFl65co5ee---12" target="lqjXlcWbuFl65co5ee---42" edge="1">
          <mxGeometry relative="1" as="geometry" />
        </mxCell>
        <mxCell id="lqjXlcWbuFl65co5ee---44" value="not working?" style="edgeLabel;html=1;align=center;verticalAlign=middle;resizable=0;points=[];rounded=0;" parent="lqjXlcWbuFl65co5ee---43" vertex="1" connectable="0">
          <mxGeometry x="-0.17" relative="1" as="geometry">
            <mxPoint as="offset" />
          </mxGeometry>
        </mxCell>
        <mxCell id="lqjXlcWbuFl65co5ee---12" value="Linear SVC&lt;br&gt;(&lt;i&gt;svm.LinearSVC&lt;/i&gt;)" style="whiteSpace=wrap;html=1;fontSize=8;fontFamily=Verdana;rounded=1;shadow=0;labelBackgroundColor=none;strokeWidth=1;fillColor=#FF6666;strokeColor=#b85450;fontStyle=1;swimlaneLine=0;" parent="1" vertex="1">
          <mxGeometry x="1190" y="18" width="120" height="60" as="geometry" />
        </mxCell>
        <mxCell id="lqjXlcWbuFl65co5ee---18" value="no" style="edgeStyle=orthogonalEdgeStyle;rounded=0;orthogonalLoop=1;jettySize=auto;html=1;fillColor=#e51400;strokeColor=#B20000;" parent="1" source="lqjXlcWbuFl65co5ee---15" target="lqjXlcWbuFl65co5ee---17" edge="1">
          <mxGeometry relative="1" as="geometry" />
        </mxCell>
        <mxCell id="lqjXlcWbuFl65co5ee---20" value="yes" style="edgeStyle=orthogonalEdgeStyle;rounded=0;orthogonalLoop=1;jettySize=auto;html=1;fillColor=#008a00;strokeColor=#005700;" parent="1" source="lqjXlcWbuFl65co5ee---15" target="lqjXlcWbuFl65co5ee---19" edge="1">
          <mxGeometry relative="1" as="geometry" />
        </mxCell>
        <mxCell id="lqjXlcWbuFl65co5ee---15" value="number categories known" style="rhombus;whiteSpace=wrap;html=1;rounded=0;shadow=1;labelBackgroundColor=none;strokeWidth=1;fontFamily=Verdana;fontSize=8;align=center;fillColor=#dae8fc;strokeColor=#6c8ebf;" parent="1" vertex="1">
          <mxGeometry x="1200" y="380" width="100" height="60" as="geometry" />
        </mxCell>
        <mxCell id="lqjXlcWbuFl65co5ee---29" value="no" style="edgeStyle=orthogonalEdgeStyle;rounded=0;orthogonalLoop=1;jettySize=auto;html=1;fillColor=#e51400;strokeColor=#B20000;" parent="1" source="lqjXlcWbuFl65co5ee---17" target="lqjXlcWbuFl65co5ee---28" edge="1">
          <mxGeometry relative="1" as="geometry" />
        </mxCell>
        <mxCell id="lqjXlcWbuFl65co5ee---35" value="yes" style="edgeStyle=orthogonalEdgeStyle;rounded=0;orthogonalLoop=1;jettySize=auto;html=1;fillColor=#008a00;strokeColor=#005700;entryX=0.5;entryY=0;entryDx=0;entryDy=0;" parent="1" source="lqjXlcWbuFl65co5ee---17" target="6wzLDkwV_o_ur1CjuWVl-34" edge="1">
          <mxGeometry relative="1" as="geometry">
            <mxPoint x="1250" y="720" as="targetPoint" />
          </mxGeometry>
        </mxCell>
        <mxCell id="lqjXlcWbuFl65co5ee---17" value="&amp;lt;10K samples" style="rhombus;whiteSpace=wrap;html=1;rounded=0;shadow=1;labelBackgroundColor=none;strokeWidth=1;fontFamily=Verdana;fontSize=8;align=center;fillColor=#dae8fc;strokeColor=#6c8ebf;" parent="1" vertex="1">
          <mxGeometry x="1200" y="610" width="100" height="60" as="geometry" />
        </mxCell>
        <mxCell id="lqjXlcWbuFl65co5ee---22" value="yes" style="edgeStyle=orthogonalEdgeStyle;rounded=0;orthogonalLoop=1;jettySize=auto;html=1;fillColor=#008a00;strokeColor=#005700;" parent="1" source="lqjXlcWbuFl65co5ee---19" target="lqjXlcWbuFl65co5ee---21" edge="1">
          <mxGeometry relative="1" as="geometry" />
        </mxCell>
        <mxCell id="lqjXlcWbuFl65co5ee---25" value="no" style="edgeStyle=orthogonalEdgeStyle;rounded=0;orthogonalLoop=1;jettySize=auto;html=1;fillColor=#e51400;strokeColor=#B20000;" parent="1" source="lqjXlcWbuFl65co5ee---19" target="lqjXlcWbuFl65co5ee---24" edge="1">
          <mxGeometry relative="1" as="geometry" />
        </mxCell>
        <mxCell id="lqjXlcWbuFl65co5ee---19" value="&amp;lt;10K samples" style="rhombus;whiteSpace=wrap;html=1;rounded=0;shadow=1;labelBackgroundColor=none;strokeWidth=1;fontFamily=Verdana;fontSize=8;align=center;fillColor=#dae8fc;strokeColor=#6c8ebf;" parent="1" vertex="1">
          <mxGeometry x="1380" y="380" width="100" height="60" as="geometry" />
        </mxCell>
        <mxCell id="6wzLDkwV_o_ur1CjuWVl-29" value="not working" style="edgeStyle=orthogonalEdgeStyle;rounded=0;orthogonalLoop=1;jettySize=auto;html=1;fillColor=#fff2cc;strokeColor=#d6b656;entryX=0;entryY=0.5;entryDx=0;entryDy=0;" parent="1" source="lqjXlcWbuFl65co5ee---21" target="6wzLDkwV_o_ur1CjuWVl-30" edge="1">
          <mxGeometry relative="1" as="geometry">
            <mxPoint x="1770" y="410" as="targetPoint" />
          </mxGeometry>
        </mxCell>
        <mxCell id="lqjXlcWbuFl65co5ee---21" value="KMeans&lt;br&gt;(&lt;i&gt;cluster.KMeans&lt;/i&gt;)" style="whiteSpace=wrap;html=1;fontSize=8;fontFamily=Verdana;rounded=1;shadow=0;labelBackgroundColor=none;strokeWidth=1;fillColor=#FF6666;strokeColor=#b85450;fontStyle=1;swimlaneLine=0;" parent="1" vertex="1">
          <mxGeometry x="1550" y="380" width="120" height="60" as="geometry" />
        </mxCell>
        <mxCell id="lqjXlcWbuFl65co5ee---24" value="MiniBatch&lt;br&gt;KMeans&lt;br&gt;(&lt;i&gt;cluster.MiniBatchKMeans&lt;/i&gt;)" style="whiteSpace=wrap;html=1;fontSize=8;fontFamily=Verdana;rounded=1;shadow=0;labelBackgroundColor=none;strokeWidth=1;fillColor=#FF6666;strokeColor=#b85450;fontStyle=1;swimlaneLine=0;" parent="1" vertex="1">
          <mxGeometry x="1365" y="480" width="130" height="60" as="geometry" />
        </mxCell>
        <mxCell id="lqjXlcWbuFl65co5ee---28" value="tough luck :(" style="whiteSpace=wrap;html=1;fontSize=8;fontFamily=Verdana;rounded=0;shadow=1;labelBackgroundColor=none;strokeWidth=1;fillColor=#d5e8d4;strokeColor=#82b366;fontStyle=1;" parent="1" vertex="1">
          <mxGeometry x="1350" y="630" width="70" height="20" as="geometry" />
        </mxCell>
        <mxCell id="lqjXlcWbuFl65co5ee---46" value="no" style="edgeStyle=orthogonalEdgeStyle;rounded=0;orthogonalLoop=1;jettySize=auto;html=1;fillColor=#e51400;strokeColor=#B20000;" parent="1" source="lqjXlcWbuFl65co5ee---42" target="lqjXlcWbuFl65co5ee---45" edge="1">
          <mxGeometry relative="1" as="geometry" />
        </mxCell>
        <mxCell id="lqjXlcWbuFl65co5ee---50" value="yes" style="edgeStyle=orthogonalEdgeStyle;rounded=0;orthogonalLoop=1;jettySize=auto;html=1;fillColor=#008a00;strokeColor=#005700;entryX=1;entryY=0.5;entryDx=0;entryDy=0;" parent="1" source="lqjXlcWbuFl65co5ee---42" target="lqjXlcWbuFl65co5ee---49" edge="1">
          <mxGeometry relative="1" as="geometry">
            <mxPoint x="1160" y="-62" as="targetPoint" />
          </mxGeometry>
        </mxCell>
        <mxCell id="lqjXlcWbuFl65co5ee---42" value="Text data" style="rhombus;whiteSpace=wrap;html=1;fontSize=8;fontFamily=Verdana;rounded=0;shadow=1;labelBackgroundColor=none;strokeWidth=1;fillColor=#dae8fc;strokeColor=#6c8ebf;" parent="1" vertex="1">
          <mxGeometry x="1210" y="-102" width="80" height="80" as="geometry" />
        </mxCell>
        <mxCell id="lqjXlcWbuFl65co5ee---89" value="not working" style="edgeStyle=orthogonalEdgeStyle;rounded=0;orthogonalLoop=1;jettySize=auto;html=1;fontSize=11;fillColor=#fff2cc;strokeColor=#d6b656;gradientColor=#ffd966;entryX=0.007;entryY=0.856;entryDx=0;entryDy=0;entryPerimeter=0;" parent="1" source="lqjXlcWbuFl65co5ee---45" edge="1" target="6wzLDkwV_o_ur1CjuWVl-14">
          <mxGeometry relative="1" as="geometry">
            <mxPoint x="1590" y="-62" as="targetPoint" />
          </mxGeometry>
        </mxCell>
        <mxCell id="lqjXlcWbuFl65co5ee---45" value="Kneighbors Classifier&lt;br&gt;(&lt;i style=&quot;border-color: var(--border-color);&quot;&gt;neighbors.KNeighborsClassifier&lt;/i&gt;)" style="whiteSpace=wrap;html=1;fontSize=8;fontFamily=Verdana;rounded=1;shadow=0;labelBackgroundColor=none;strokeWidth=1;fillColor=#FF6666;strokeColor=#b85450;fontStyle=1;swimlaneLine=0;" parent="1" vertex="1">
          <mxGeometry x="1330" y="-92" width="170" height="60" as="geometry" />
        </mxCell>
        <mxCell id="lqjXlcWbuFl65co5ee---49" value="Multinomial Naive Bayes&lt;br&gt;(&lt;i&gt;naive_bayes.MultinomialNB&lt;/i&gt;)" style="whiteSpace=wrap;html=1;fontSize=8;fontFamily=Verdana;rounded=1;shadow=0;labelBackgroundColor=none;strokeWidth=1;fillColor=#FF6666;strokeColor=#b85450;fontStyle=1;swimlaneLine=0;" parent="1" vertex="1">
          <mxGeometry x="1000" y="-92" width="150" height="60" as="geometry" />
        </mxCell>
        <mxCell id="lqjXlcWbuFl65co5ee---56" value="yes" style="edgeStyle=orthogonalEdgeStyle;rounded=0;orthogonalLoop=1;jettySize=auto;html=1;fillColor=#008a00;strokeColor=#005700;" parent="1" source="lqjXlcWbuFl65co5ee---53" target="lqjXlcWbuFl65co5ee---55" edge="1">
          <mxGeometry relative="1" as="geometry" />
        </mxCell>
        <mxCell id="lqjXlcWbuFl65co5ee---70" value="no" style="edgeStyle=orthogonalEdgeStyle;rounded=0;orthogonalLoop=1;jettySize=auto;html=1;exitX=0;exitY=0.5;exitDx=0;exitDy=0;fillColor=#e51400;strokeColor=#B20000;" parent="1" source="lqjXlcWbuFl65co5ee---53" target="lqjXlcWbuFl65co5ee---69" edge="1">
          <mxGeometry relative="1" as="geometry">
            <mxPoint x="820" y="372.5" as="sourcePoint" />
          </mxGeometry>
        </mxCell>
        <mxCell id="lqjXlcWbuFl65co5ee---53" value="predicting a quantity" style="rhombus;whiteSpace=wrap;html=1;rounded=0;shadow=1;labelBackgroundColor=none;strokeWidth=1;fontFamily=Verdana;fontSize=8;align=center;fillColor=#dae8fc;strokeColor=#6c8ebf;" parent="1" vertex="1">
          <mxGeometry x="860" y="340" width="100" height="60" as="geometry" />
        </mxCell>
        <mxCell id="lqjXlcWbuFl65co5ee---59" value="no" style="edgeStyle=orthogonalEdgeStyle;rounded=0;orthogonalLoop=1;jettySize=auto;html=1;fillColor=#e51400;strokeColor=#B20000;" parent="1" source="lqjXlcWbuFl65co5ee---55" target="lqjXlcWbuFl65co5ee---58" edge="1">
          <mxGeometry relative="1" as="geometry" />
        </mxCell>
        <mxCell id="lqjXlcWbuFl65co5ee---61" value="yes" style="edgeStyle=orthogonalEdgeStyle;rounded=0;orthogonalLoop=1;jettySize=auto;html=1;fillColor=#008a00;strokeColor=#005700;" parent="1" source="lqjXlcWbuFl65co5ee---55" target="lqjXlcWbuFl65co5ee---60" edge="1">
          <mxGeometry relative="1" as="geometry" />
        </mxCell>
        <mxCell id="lqjXlcWbuFl65co5ee---55" value="&amp;lt;100K samples" style="rhombus;whiteSpace=wrap;html=1;rounded=0;shadow=1;labelBackgroundColor=none;strokeWidth=1;fontFamily=Verdana;fontSize=8;align=center;fillColor=#dae8fc;strokeColor=#6c8ebf;" parent="1" vertex="1">
          <mxGeometry x="860" y="440" width="100" height="60" as="geometry" />
        </mxCell>
        <mxCell id="lqjXlcWbuFl65co5ee---58" value="SGD Regressor&lt;br&gt;(&lt;i&gt;linear_model.SGDRegressor&lt;/i&gt;)" style="whiteSpace=wrap;html=1;fontSize=8;fontFamily=Verdana;rounded=1;shadow=0;labelBackgroundColor=none;strokeWidth=1;fillColor=#FF6666;strokeColor=#b85450;fontStyle=1;autosize=0;swimlaneLine=0;" parent="1" vertex="1">
          <mxGeometry x="1030" y="449" width="150" height="40" as="geometry" />
        </mxCell>
        <mxCell id="lqjXlcWbuFl65co5ee---63" value="yes" style="edgeStyle=orthogonalEdgeStyle;rounded=0;orthogonalLoop=1;jettySize=auto;html=1;fillColor=#008a00;strokeColor=#005700;entryX=0;entryY=0.5;entryDx=0;entryDy=0;" parent="1" source="lqjXlcWbuFl65co5ee---60" target="6wzLDkwV_o_ur1CjuWVl-53" edge="1">
          <mxGeometry relative="1" as="geometry">
            <mxPoint x="1020" y="570" as="targetPoint" />
          </mxGeometry>
        </mxCell>
        <mxCell id="lqjXlcWbuFl65co5ee---65" value="no" style="edgeStyle=orthogonalEdgeStyle;rounded=0;orthogonalLoop=1;jettySize=auto;html=1;fillColor=#e51400;strokeColor=#B20000;entryX=0.5;entryY=0;entryDx=0;entryDy=0;" parent="1" source="lqjXlcWbuFl65co5ee---60" target="l4Pw_XisayViGn0dvA-g-1" edge="1">
          <mxGeometry relative="1" as="geometry">
            <mxPoint x="910" y="656.0000000000002" as="targetPoint" />
          </mxGeometry>
        </mxCell>
        <mxCell id="lqjXlcWbuFl65co5ee---60" value="few features should be important&lt;br&gt;" style="rhombus;whiteSpace=wrap;html=1;rounded=0;shadow=1;labelBackgroundColor=none;strokeWidth=1;fontFamily=Verdana;fontSize=8;align=center;fillColor=#dae8fc;strokeColor=#6c8ebf;" parent="1" vertex="1">
          <mxGeometry x="860" y="540" width="100" height="60" as="geometry" />
        </mxCell>
        <mxCell id="lqjXlcWbuFl65co5ee---67" value="not working" style="edgeStyle=orthogonalEdgeStyle;rounded=0;orthogonalLoop=1;jettySize=auto;html=1;entryX=0.5;entryY=0;entryDx=0;entryDy=0;fillColor=#e3c800;strokeColor=#B09500;" parent="1" target="l4Pw_XisayViGn0dvA-g-4" edge="1">
          <mxGeometry relative="1" as="geometry">
            <mxPoint x="910" y="740" as="sourcePoint" />
            <mxPoint x="910" y="765" as="targetPoint" />
          </mxGeometry>
        </mxCell>
        <mxCell id="lqjXlcWbuFl65co5ee---72" value="yes" style="edgeStyle=orthogonalEdgeStyle;rounded=0;orthogonalLoop=1;jettySize=auto;html=1;fillColor=#008a00;strokeColor=#005700;" parent="1" source="lqjXlcWbuFl65co5ee---69" target="lqjXlcWbuFl65co5ee---71" edge="1">
          <mxGeometry relative="1" as="geometry" />
        </mxCell>
        <mxCell id="lqjXlcWbuFl65co5ee---84" value="no" style="edgeStyle=orthogonalEdgeStyle;rounded=0;orthogonalLoop=1;jettySize=auto;html=1;fillColor=#e51400;strokeColor=#B20000;" parent="1" source="lqjXlcWbuFl65co5ee---69" target="lqjXlcWbuFl65co5ee---83" edge="1">
          <mxGeometry relative="1" as="geometry" />
        </mxCell>
        <mxCell id="lqjXlcWbuFl65co5ee---69" value="just looking" style="rhombus;whiteSpace=wrap;html=1;rounded=0;shadow=1;labelBackgroundColor=none;strokeWidth=1;fontFamily=Verdana;fontSize=8;align=center;fillColor=#dae8fc;strokeColor=#6c8ebf;" parent="1" vertex="1">
          <mxGeometry x="640" y="340" width="100" height="60" as="geometry" />
        </mxCell>
        <mxCell id="lqjXlcWbuFl65co5ee---75" value="not working" style="edgeStyle=orthogonalEdgeStyle;rounded=0;orthogonalLoop=1;jettySize=auto;html=1;fillColor=#fff2cc;gradientColor=#ffd966;strokeColor=#d6b656;" parent="1" source="lqjXlcWbuFl65co5ee---71" target="lqjXlcWbuFl65co5ee---74" edge="1">
          <mxGeometry relative="1" as="geometry" />
        </mxCell>
        <mxCell id="lqjXlcWbuFl65co5ee---71" value="Randomized PCA&lt;br&gt;&lt;div style=&quot;text-align: left;&quot;&gt;&lt;span style=&quot;background-color: initial;&quot;&gt;(&lt;/span&gt;&lt;span style=&quot;background-color: initial;&quot;&gt;&lt;i&gt;decomposition.PCA&lt;/i&gt;)&lt;/span&gt;&lt;/div&gt;" style="whiteSpace=wrap;html=1;fontSize=8;fontFamily=Verdana;rounded=1;shadow=0;labelBackgroundColor=none;strokeWidth=1;fillColor=#FF6666;strokeColor=#b85450;fontStyle=1;autosize=1;swimlaneLine=0;" parent="1" vertex="1">
          <mxGeometry x="630" y="455" width="120" height="45" as="geometry" />
        </mxCell>
        <mxCell id="lqjXlcWbuFl65co5ee---78" value="no" style="edgeStyle=orthogonalEdgeStyle;rounded=0;orthogonalLoop=1;jettySize=auto;html=1;fillColor=#e51400;strokeColor=#B20000;" parent="1" source="lqjXlcWbuFl65co5ee---74" target="6wzLDkwV_o_ur1CjuWVl-39" edge="1">
          <mxGeometry relative="1" as="geometry">
            <mxPoint x="590" y="570" as="targetPoint" />
          </mxGeometry>
        </mxCell>
        <mxCell id="lqjXlcWbuFl65co5ee---80" value="yes" style="edgeStyle=orthogonalEdgeStyle;rounded=0;orthogonalLoop=1;jettySize=auto;html=1;fillColor=#008a00;strokeColor=#005700;entryX=0.5;entryY=0;entryDx=0;entryDy=0;" parent="1" source="lqjXlcWbuFl65co5ee---74" target="6wzLDkwV_o_ur1CjuWVl-44" edge="1">
          <mxGeometry relative="1" as="geometry">
            <mxPoint x="690" y="640" as="targetPoint" />
          </mxGeometry>
        </mxCell>
        <mxCell id="lqjXlcWbuFl65co5ee---74" value="&amp;lt;10K samples" style="rhombus;whiteSpace=wrap;html=1;fontSize=8;fontFamily=Verdana;rounded=0;shadow=1;labelBackgroundColor=none;strokeWidth=1;fillColor=#dae8fc;strokeColor=#6c8ebf;" parent="1" vertex="1">
          <mxGeometry x="650" y="545" width="80" height="50" as="geometry" />
        </mxCell>
        <mxCell id="lqjXlcWbuFl65co5ee---87" value="yes" style="edgeStyle=orthogonalEdgeStyle;rounded=0;orthogonalLoop=1;jettySize=auto;html=1;" parent="1" source="lqjXlcWbuFl65co5ee---83" target="lqjXlcWbuFl65co5ee---86" edge="1">
          <mxGeometry relative="1" as="geometry" />
        </mxCell>
        <mxCell id="lqjXlcWbuFl65co5ee---83" value="predicting structure" style="rhombus;whiteSpace=wrap;html=1;rounded=0;shadow=1;labelBackgroundColor=none;strokeWidth=1;fontFamily=Verdana;fontSize=8;align=center;fillColor=#dae8fc;strokeColor=#6c8ebf;" parent="1" vertex="1">
          <mxGeometry x="460" y="340" width="100" height="60" as="geometry" />
        </mxCell>
        <mxCell id="lqjXlcWbuFl65co5ee---86" value="tough luck :(" style="whiteSpace=wrap;html=1;fontSize=8;fontFamily=Verdana;rounded=0;shadow=1;labelBackgroundColor=none;strokeWidth=1;strokeColor=#82b366;fillColor=#d5e8d4;fontStyle=1;" parent="1" vertex="1">
          <mxGeometry x="475" y="440" width="70" height="20" as="geometry" />
        </mxCell>
        <mxCell id="lqjXlcWbuFl65co5ee---91" value="&lt;b&gt;&lt;u&gt;&lt;font style=&quot;font-size: 80px;&quot;&gt;ESTIMATOR&lt;/font&gt;&lt;/u&gt;&lt;/b&gt;" style="text;html=1;strokeColor=none;fillColor=none;align=center;verticalAlign=middle;whiteSpace=wrap;rounded=0;shadow=0;glass=1;strokeWidth=4;fontSize=50;opacity=10;" parent="1" vertex="1">
          <mxGeometry x="490" y="-20" width="400" height="100" as="geometry" />
        </mxCell>
        <mxCell id="6wzLDkwV_o_ur1CjuWVl-12" value="SVC / Ensemble" style="swimlane;fontStyle=1;childLayout=stackLayout;horizontal=1;startSize=30;horizontalStack=0;resizeParent=1;resizeParentMax=0;resizeLast=0;collapsible=1;marginBottom=0;whiteSpace=wrap;html=1;rounded=1;fillColor=#FF6666;strokeColor=#b85450;swimlaneLine=0;shadow=0;" parent="1" vertex="1">
          <mxGeometry x="1595" y="-148" width="180" height="172" as="geometry" />
        </mxCell>
        <mxCell id="6wzLDkwV_o_ur1CjuWVl-13" value="&lt;i&gt;svm.SVC&lt;/i&gt;" style="text;strokeColor=none;fillColor=none;align=left;verticalAlign=middle;spacingLeft=4;spacingRight=4;overflow=hidden;points=[[0,0.5],[1,0.5]];portConstraint=eastwest;rotatable=0;whiteSpace=wrap;html=1;rounded=1;sketch=0;" parent="6wzLDkwV_o_ur1CjuWVl-12" vertex="1">
          <mxGeometry y="30" width="180" height="30" as="geometry" />
        </mxCell>
        <mxCell id="6wzLDkwV_o_ur1CjuWVl-14" value="ensemble.AdaBoostClassifier" style="text;strokeColor=none;fillColor=none;align=left;verticalAlign=middle;spacingLeft=4;spacingRight=4;overflow=hidden;points=[[0,0.5],[1,0.5]];portConstraint=eastwest;rotatable=0;whiteSpace=wrap;html=1;rounded=1;sketch=0;fontStyle=2" parent="6wzLDkwV_o_ur1CjuWVl-12" vertex="1">
          <mxGeometry y="60" width="180" height="30" as="geometry" />
        </mxCell>
        <mxCell id="6wzLDkwV_o_ur1CjuWVl-15" value="&lt;i&gt;ensemble.BaggingClassifier&lt;/i&gt;" style="text;strokeColor=none;fillColor=none;align=left;verticalAlign=middle;spacingLeft=4;spacingRight=4;overflow=hidden;points=[[0,0.5],[1,0.5]];portConstraint=eastwest;rotatable=0;whiteSpace=wrap;html=1;rounded=1;sketch=0;" parent="6wzLDkwV_o_ur1CjuWVl-12" vertex="1">
          <mxGeometry y="90" width="180" height="30" as="geometry" />
        </mxCell>
        <mxCell id="6wzLDkwV_o_ur1CjuWVl-18" value="ensemble.GradientBoostingClassifier" style="text;strokeColor=none;fillColor=none;align=left;verticalAlign=top;spacingLeft=4;spacingRight=4;overflow=hidden;rotatable=0;points=[[0,0.5],[1,0.5]];portConstraint=eastwest;whiteSpace=wrap;html=1;rounded=1;sketch=0;" parent="6wzLDkwV_o_ur1CjuWVl-12" vertex="1">
          <mxGeometry y="120" width="180" height="26" as="geometry" />
        </mxCell>
        <mxCell id="6wzLDkwV_o_ur1CjuWVl-19" value="&lt;i&gt;ensemble.RandomForestClassifier&lt;/i&gt;" style="text;strokeColor=none;fillColor=none;align=left;verticalAlign=top;spacingLeft=4;spacingRight=4;overflow=hidden;rotatable=0;points=[[0,0.5],[1,0.5]];portConstraint=eastwest;whiteSpace=wrap;html=1;rounded=1;sketch=0;" parent="6wzLDkwV_o_ur1CjuWVl-12" vertex="1">
          <mxGeometry y="146" width="180" height="26" as="geometry" />
        </mxCell>
        <mxCell id="6wzLDkwV_o_ur1CjuWVl-26" value="" style="edgeStyle=orthogonalEdgeStyle;rounded=0;orthogonalLoop=1;jettySize=auto;html=1;" parent="1" source="6wzLDkwV_o_ur1CjuWVl-20" target="6wzLDkwV_o_ur1CjuWVl-25" edge="1">
          <mxGeometry relative="1" as="geometry" />
        </mxCell>
        <mxCell id="6wzLDkwV_o_ur1CjuWVl-20" value="kernel approximation" style="swimlane;fontStyle=1;childLayout=stackLayout;horizontal=1;startSize=26;fillColor=#FF6666;horizontalStack=0;resizeParent=1;resizeParentMax=0;resizeLast=0;collapsible=1;marginBottom=0;html=1;rounded=1;strokeColor=#b85450;swimlaneLine=0;shadow=0;" parent="1" vertex="1">
          <mxGeometry x="1610" y="106" width="150" height="104" as="geometry" />
        </mxCell>
        <mxCell id="6wzLDkwV_o_ur1CjuWVl-21" value="&lt;i&gt;...Nystroem&lt;/i&gt;" style="text;strokeColor=none;fillColor=none;align=left;verticalAlign=top;spacingLeft=4;spacingRight=4;overflow=hidden;rotatable=0;points=[[0,0.5],[1,0.5]];portConstraint=eastwest;whiteSpace=wrap;html=1;rounded=1;swimlaneLine=0;shadow=0;" parent="6wzLDkwV_o_ur1CjuWVl-20" vertex="1">
          <mxGeometry y="26" width="150" height="26" as="geometry" />
        </mxCell>
        <mxCell id="6wzLDkwV_o_ur1CjuWVl-22" value="...&lt;i&gt;RBFSampler&lt;/i&gt;" style="text;strokeColor=none;fillColor=none;align=left;verticalAlign=top;spacingLeft=4;spacingRight=4;overflow=hidden;rotatable=0;points=[[0,0.5],[1,0.5]];portConstraint=eastwest;whiteSpace=wrap;html=1;rounded=1;sketch=0;" parent="6wzLDkwV_o_ur1CjuWVl-20" vertex="1">
          <mxGeometry y="52" width="150" height="26" as="geometry" />
        </mxCell>
        <mxCell id="6wzLDkwV_o_ur1CjuWVl-23" value="...&lt;i&gt;PolynomialCountSketch&lt;/i&gt;" style="text;strokeColor=none;fillColor=none;align=left;verticalAlign=top;spacingLeft=4;spacingRight=4;overflow=hidden;rotatable=0;points=[[0,0.5],[1,0.5]];portConstraint=eastwest;whiteSpace=wrap;html=1;rounded=1;sketch=0;" parent="6wzLDkwV_o_ur1CjuWVl-20" vertex="1">
          <mxGeometry y="78" width="150" height="26" as="geometry" />
        </mxCell>
        <mxCell id="6wzLDkwV_o_ur1CjuWVl-25" value="SVM" style="whiteSpace=wrap;html=1;fillColor=#FF6666;strokeColor=#b85450;fontStyle=1;startSize=26;rounded=1;swimlaneLine=0;shadow=0;" parent="1" vertex="1">
          <mxGeometry x="1815" y="138" width="80" height="40" as="geometry" />
        </mxCell>
        <mxCell id="6wzLDkwV_o_ur1CjuWVl-30" value="&lt;span style=&quot;color: rgb(0, 0, 0); font-family: Verdana; font-size: 8px; font-style: normal; font-variant-ligatures: normal; font-variant-caps: normal; letter-spacing: normal; orphans: 2; text-align: center; text-indent: 0px; text-transform: none; widows: 2; word-spacing: 0px; -webkit-text-stroke-width: 0px; text-decoration-thickness: initial; text-decoration-style: initial; text-decoration-color: initial; float: none; display: inline !important;&quot;&gt;Spectral Clustering / GMM&lt;/span&gt;" style="swimlane;fontStyle=1;childLayout=stackLayout;horizontal=1;startSize=26;fillColor=#FF6666;horizontalStack=0;resizeParent=1;resizeParentMax=0;resizeLast=0;collapsible=1;marginBottom=0;html=1;rounded=1;strokeColor=#b85450;labelBackgroundColor=none;swimlaneLine=0;shadow=0;" parent="1" vertex="1">
          <mxGeometry x="1780" y="371" width="150" height="78" as="geometry" />
        </mxCell>
        <mxCell id="6wzLDkwV_o_ur1CjuWVl-32" value="&lt;i&gt;mixture.GaussianMixture&lt;/i&gt;" style="text;strokeColor=none;fillColor=none;align=left;verticalAlign=top;spacingLeft=4;spacingRight=4;overflow=hidden;rotatable=0;points=[[0,0.5],[1,0.5]];portConstraint=eastwest;whiteSpace=wrap;html=1;rounded=1;sketch=0;" parent="6wzLDkwV_o_ur1CjuWVl-30" vertex="1">
          <mxGeometry y="26" width="150" height="26" as="geometry" />
        </mxCell>
        <mxCell id="6wzLDkwV_o_ur1CjuWVl-33" value="cluster.SpectralClustering" style="text;strokeColor=none;fillColor=none;align=left;verticalAlign=top;spacingLeft=4;spacingRight=4;overflow=hidden;rotatable=0;points=[[0,0.5],[1,0.5]];portConstraint=eastwest;whiteSpace=wrap;html=1;rounded=1;sketch=0;fontStyle=2" parent="6wzLDkwV_o_ur1CjuWVl-30" vertex="1">
          <mxGeometry y="52" width="150" height="26" as="geometry" />
        </mxCell>
        <mxCell id="6wzLDkwV_o_ur1CjuWVl-34" value="&lt;span&gt;MeanShift / VGBMM&lt;/span&gt;" style="swimlane;fontStyle=1;childLayout=stackLayout;horizontal=1;startSize=26;fillColor=#FF6666;horizontalStack=0;resizeParent=1;resizeParentMax=0;resizeLast=0;collapsible=1;marginBottom=0;html=1;rounded=1;labelBackgroundColor=none;strokeColor=#b85450;swimlaneLine=0;shadow=0;" parent="1" vertex="1">
          <mxGeometry x="1180" y="710" width="140" height="78" as="geometry" />
        </mxCell>
        <mxCell id="6wzLDkwV_o_ur1CjuWVl-35" value="cluster.MeanShift" style="text;strokeColor=none;fillColor=none;align=left;verticalAlign=top;spacingLeft=4;spacingRight=4;overflow=hidden;rotatable=0;points=[[0,0.5],[1,0.5]];portConstraint=eastwest;whiteSpace=wrap;html=1;rounded=1;labelBackgroundColor=none;sketch=0;fontStyle=2" parent="6wzLDkwV_o_ur1CjuWVl-34" vertex="1">
          <mxGeometry y="26" width="140" height="26" as="geometry" />
        </mxCell>
        <mxCell id="6wzLDkwV_o_ur1CjuWVl-36" value="&lt;i&gt;mixture.VGBMM&lt;/i&gt;" style="text;strokeColor=none;fillColor=none;align=left;verticalAlign=top;spacingLeft=4;spacingRight=4;overflow=hidden;rotatable=0;points=[[0,0.5],[1,0.5]];portConstraint=eastwest;whiteSpace=wrap;html=1;rounded=1;labelBackgroundColor=none;sketch=0;" parent="6wzLDkwV_o_ur1CjuWVl-34" vertex="1">
          <mxGeometry y="52" width="140" height="26" as="geometry" />
        </mxCell>
        <mxCell id="6wzLDkwV_o_ur1CjuWVl-38" value="" style="edgeStyle=orthogonalEdgeStyle;rounded=0;orthogonalLoop=1;jettySize=auto;html=1;" parent="1" source="6wzLDkwV_o_ur1CjuWVl-39" target="6wzLDkwV_o_ur1CjuWVl-43" edge="1">
          <mxGeometry relative="1" as="geometry" />
        </mxCell>
        <mxCell id="6wzLDkwV_o_ur1CjuWVl-39" value="kernel approximation" style="swimlane;fontStyle=1;childLayout=stackLayout;horizontal=1;startSize=26;fillColor=#FF6666;horizontalStack=0;resizeParent=1;resizeParentMax=0;resizeLast=0;collapsible=1;marginBottom=0;html=1;rounded=1;strokeColor=#b85450;swimlaneLine=0;shadow=0;" parent="1" vertex="1">
          <mxGeometry x="435" y="518" width="150" height="104" as="geometry" />
        </mxCell>
        <mxCell id="6wzLDkwV_o_ur1CjuWVl-40" value="&lt;i&gt;...Nystroem&lt;/i&gt;" style="text;strokeColor=none;fillColor=none;align=left;verticalAlign=top;spacingLeft=4;spacingRight=4;overflow=hidden;rotatable=0;points=[[0,0.5],[1,0.5]];portConstraint=eastwest;whiteSpace=wrap;html=1;rounded=1;sketch=0;" parent="6wzLDkwV_o_ur1CjuWVl-39" vertex="1">
          <mxGeometry y="26" width="150" height="26" as="geometry" />
        </mxCell>
        <mxCell id="6wzLDkwV_o_ur1CjuWVl-41" value="...&lt;i&gt;RBFSampler&lt;/i&gt;" style="text;strokeColor=none;fillColor=none;align=left;verticalAlign=top;spacingLeft=4;spacingRight=4;overflow=hidden;rotatable=0;points=[[0,0.5],[1,0.5]];portConstraint=eastwest;whiteSpace=wrap;html=1;rounded=1;sketch=0;" parent="6wzLDkwV_o_ur1CjuWVl-39" vertex="1">
          <mxGeometry y="52" width="150" height="26" as="geometry" />
        </mxCell>
        <mxCell id="6wzLDkwV_o_ur1CjuWVl-42" value="...&lt;i&gt;PolynomialCountSketch&lt;/i&gt;" style="text;strokeColor=none;fillColor=none;align=left;verticalAlign=top;spacingLeft=4;spacingRight=4;overflow=hidden;rotatable=0;points=[[0,0.5],[1,0.5]];portConstraint=eastwest;whiteSpace=wrap;html=1;rounded=1;sketch=0;" parent="6wzLDkwV_o_ur1CjuWVl-39" vertex="1">
          <mxGeometry y="78" width="150" height="26" as="geometry" />
        </mxCell>
        <mxCell id="6wzLDkwV_o_ur1CjuWVl-43" value="SVM" style="whiteSpace=wrap;html=1;fillColor=#FF6666;strokeColor=#b85450;fontStyle=1;startSize=26;rounded=1;swimlaneLine=0;shadow=0;" parent="1" vertex="1">
          <mxGeometry x="310" y="555" width="80" height="30" as="geometry" />
        </mxCell>
        <mxCell id="6wzLDkwV_o_ur1CjuWVl-44" value="Isomap / &lt;br&gt;Spectral Embedding" style="swimlane;fontStyle=1;childLayout=stackLayout;horizontal=1;startSize=40;fillColor=#FF6666;horizontalStack=0;resizeParent=1;resizeParentMax=0;resizeLast=0;collapsible=1;marginBottom=0;html=1;rounded=1;sketch=0;strokeColor=#b85450;shadow=0;" parent="1" vertex="1">
          <mxGeometry x="595" y="640" width="190" height="92" as="geometry" />
        </mxCell>
        <mxCell id="6wzLDkwV_o_ur1CjuWVl-45" value="&lt;i&gt;manifold.Isomap&lt;/i&gt;" style="text;strokeColor=none;fillColor=none;align=left;verticalAlign=top;spacingLeft=4;spacingRight=4;overflow=hidden;rotatable=0;points=[[0,0.5],[1,0.5]];portConstraint=eastwest;whiteSpace=wrap;html=1;rounded=1;swimlaneLine=0;shadow=0;" parent="6wzLDkwV_o_ur1CjuWVl-44" vertex="1">
          <mxGeometry y="40" width="190" height="26" as="geometry" />
        </mxCell>
        <mxCell id="6wzLDkwV_o_ur1CjuWVl-47" value="&lt;i&gt;maniford.spectral_embedding&lt;/i&gt;" style="text;strokeColor=none;fillColor=none;align=left;verticalAlign=top;spacingLeft=4;spacingRight=4;overflow=hidden;rotatable=0;points=[[0,0.5],[1,0.5]];portConstraint=eastwest;whiteSpace=wrap;html=1;rounded=1;sketch=0;" parent="6wzLDkwV_o_ur1CjuWVl-44" vertex="1">
          <mxGeometry y="66" width="190" height="26" as="geometry" />
        </mxCell>
        <mxCell id="6wzLDkwV_o_ur1CjuWVl-50" value="not working" style="edgeStyle=orthogonalEdgeStyle;rounded=0;orthogonalLoop=1;jettySize=auto;html=1;exitX=0.5;exitY=1;exitDx=0;exitDy=0;fillColor=#e3c800;strokeColor=#B09500;" parent="1" source="6wzLDkwV_o_ur1CjuWVl-44" target="6wzLDkwV_o_ur1CjuWVl-51" edge="1">
          <mxGeometry relative="1" as="geometry">
            <mxPoint x="680" y="752" as="sourcePoint" />
          </mxGeometry>
        </mxCell>
        <mxCell id="6wzLDkwV_o_ur1CjuWVl-51" value="Locally Linear Embedding (LLE)&lt;br&gt;(&lt;i&gt;manifold.locally_linear_embedding&lt;/i&gt;)" style="whiteSpace=wrap;html=1;fontSize=8;fontFamily=Verdana;rounded=1;shadow=0;labelBackgroundColor=none;strokeWidth=1;fillColor=#FF6666;strokeColor=#b85450;fontStyle=1;swimlaneLine=0;" parent="1" vertex="1">
          <mxGeometry x="602.5" y="780" width="175" height="50" as="geometry" />
        </mxCell>
        <mxCell id="6wzLDkwV_o_ur1CjuWVl-52" value="Lasso / ElasticNet" style="swimlane;fontStyle=1;childLayout=stackLayout;horizontal=1;startSize=30;fillColor=#FF6666;horizontalStack=0;resizeParent=1;resizeParentMax=0;resizeLast=0;collapsible=1;marginBottom=0;html=1;rounded=1;strokeColor=#b85450;swimlaneLine=0;shadow=0;" parent="1" vertex="1">
          <mxGeometry x="1010" y="528" width="190" height="82" as="geometry" />
        </mxCell>
        <mxCell id="6wzLDkwV_o_ur1CjuWVl-53" value="&lt;span&gt;linear_model.Lasso&lt;/span&gt;" style="text;strokeColor=none;fillColor=none;align=left;verticalAlign=top;spacingLeft=4;spacingRight=4;overflow=hidden;rotatable=0;points=[[0,0.5],[1,0.5]];portConstraint=eastwest;whiteSpace=wrap;html=1;rounded=1;sketch=0;fontStyle=2" parent="6wzLDkwV_o_ur1CjuWVl-52" vertex="1">
          <mxGeometry y="30" width="190" height="26" as="geometry" />
        </mxCell>
        <mxCell id="6wzLDkwV_o_ur1CjuWVl-54" value="&lt;i&gt;linear_model.ElasticNet&lt;/i&gt;" style="text;strokeColor=none;fillColor=none;align=left;verticalAlign=top;spacingLeft=4;spacingRight=4;overflow=hidden;rotatable=0;points=[[0,0.5],[1,0.5]];portConstraint=eastwest;whiteSpace=wrap;html=1;rounded=1;sketch=0;" parent="6wzLDkwV_o_ur1CjuWVl-52" vertex="1">
          <mxGeometry y="56" width="190" height="26" as="geometry" />
        </mxCell>
        <mxCell id="l4Pw_XisayViGn0dvA-g-1" value="RidgeRegression / SVR(&#39;linear&#39;)" style="swimlane;fontStyle=1;childLayout=stackLayout;horizontal=1;startSize=30;fillColor=#FF6666;horizontalStack=0;resizeParent=1;resizeParentMax=0;resizeLast=0;collapsible=1;marginBottom=0;html=1;rounded=1;strokeColor=#b85450;swimlaneLine=0;shadow=0;" vertex="1" parent="1">
          <mxGeometry x="815" y="660" width="190" height="82" as="geometry" />
        </mxCell>
        <mxCell id="l4Pw_XisayViGn0dvA-g-2" value="&lt;span&gt;linear_model.Ridge&lt;br&gt;&lt;/span&gt;" style="text;strokeColor=none;fillColor=none;align=left;verticalAlign=top;spacingLeft=4;spacingRight=4;overflow=hidden;rotatable=0;points=[[0,0.5],[1,0.5]];portConstraint=eastwest;whiteSpace=wrap;html=1;rounded=1;sketch=0;fontStyle=2" vertex="1" parent="l4Pw_XisayViGn0dvA-g-1">
          <mxGeometry y="30" width="190" height="26" as="geometry" />
        </mxCell>
        <mxCell id="l4Pw_XisayViGn0dvA-g-3" value="&lt;i&gt;svm.SVR(kernel=&#39;linear&#39;)&lt;/i&gt;" style="text;strokeColor=none;fillColor=none;align=left;verticalAlign=top;spacingLeft=4;spacingRight=4;overflow=hidden;rotatable=0;points=[[0,0.5],[1,0.5]];portConstraint=eastwest;whiteSpace=wrap;html=1;rounded=1;sketch=0;" vertex="1" parent="l4Pw_XisayViGn0dvA-g-1">
          <mxGeometry y="56" width="190" height="26" as="geometry" />
        </mxCell>
        <mxCell id="l4Pw_XisayViGn0dvA-g-4" value="RidgeRegression / SVR(&#39;linear&#39;)" style="swimlane;fontStyle=1;childLayout=stackLayout;horizontal=1;startSize=30;fillColor=#FF6666;horizontalStack=0;resizeParent=1;resizeParentMax=0;resizeLast=0;collapsible=1;marginBottom=0;html=1;rounded=1;strokeColor=#b85450;swimlaneLine=0;shadow=0;" vertex="1" parent="1">
          <mxGeometry x="815" y="788" width="190" height="168" as="geometry" />
        </mxCell>
        <mxCell id="l4Pw_XisayViGn0dvA-g-6" value="&lt;i&gt;svm.SVR(kernel=&#39;linear&#39;)&lt;/i&gt;" style="text;strokeColor=none;fillColor=none;align=left;verticalAlign=top;spacingLeft=4;spacingRight=4;overflow=hidden;rotatable=0;points=[[0,0.5],[1,0.5]];portConstraint=eastwest;whiteSpace=wrap;html=1;rounded=1;sketch=0;" vertex="1" parent="l4Pw_XisayViGn0dvA-g-4">
          <mxGeometry y="30" width="190" height="26" as="geometry" />
        </mxCell>
        <mxCell id="l4Pw_XisayViGn0dvA-g-9" value="ensemble.AdaBoostRegressor" style="text;strokeColor=none;fillColor=none;align=left;verticalAlign=middle;spacingLeft=4;spacingRight=4;overflow=hidden;points=[[0,0.5],[1,0.5]];portConstraint=eastwest;rotatable=0;whiteSpace=wrap;html=1;rounded=1;sketch=0;fontStyle=2" vertex="1" parent="l4Pw_XisayViGn0dvA-g-4">
          <mxGeometry y="56" width="190" height="30" as="geometry" />
        </mxCell>
        <mxCell id="l4Pw_XisayViGn0dvA-g-10" value="&lt;i&gt;ensemble.Bagging&lt;/i&gt;Regressor" style="text;strokeColor=none;fillColor=none;align=left;verticalAlign=middle;spacingLeft=4;spacingRight=4;overflow=hidden;points=[[0,0.5],[1,0.5]];portConstraint=eastwest;rotatable=0;whiteSpace=wrap;html=1;rounded=1;sketch=0;" vertex="1" parent="l4Pw_XisayViGn0dvA-g-4">
          <mxGeometry y="86" width="190" height="30" as="geometry" />
        </mxCell>
        <mxCell id="l4Pw_XisayViGn0dvA-g-12" value="&lt;i&gt;ensemble.RandomForest&lt;/i&gt;Regressor" style="text;strokeColor=none;fillColor=none;align=left;verticalAlign=top;spacingLeft=4;spacingRight=4;overflow=hidden;rotatable=0;points=[[0,0.5],[1,0.5]];portConstraint=eastwest;whiteSpace=wrap;html=1;rounded=1;sketch=0;" vertex="1" parent="l4Pw_XisayViGn0dvA-g-4">
          <mxGeometry y="116" width="190" height="26" as="geometry" />
        </mxCell>
        <mxCell id="l4Pw_XisayViGn0dvA-g-11" value="ensemble.GradientBoostingRegressor" style="text;strokeColor=none;fillColor=none;align=left;verticalAlign=top;spacingLeft=4;spacingRight=4;overflow=hidden;rotatable=0;points=[[0,0.5],[1,0.5]];portConstraint=eastwest;whiteSpace=wrap;html=1;rounded=1;sketch=0;" vertex="1" parent="l4Pw_XisayViGn0dvA-g-4">
          <mxGeometry y="142" width="190" height="26" as="geometry" />
        </mxCell>
      </root>
    </mxGraphModel>
  </diagram>
</mxfile>
